<svg xmlns="http://www.w3.org/2000/svg" viewBox="0 0 64 64">
  <defs>
    <linearGradient id="pcGrad" x1="0" y1="0" x2="1" y2="1">
      <stop offset="0%" stop-color="#6c5ce7"/>
      <stop offset="100%" stop-color="#a29bfe"/>
    </linearGradient>
  </defs>
  <rect x="0" y="0" width="64" height="64" rx="14" fill="url(#pcGrad)"/>
  <!-- pixel "P" monogram -->
  <rect x="16" y="8"  width="8" height="8" rx="1.5" fill="#ffffff"/>
  <rect x="24" y="8"  width="8" height="8" rx="1.5" fill="#ffffff"/>
  <rect x="32" y="8"  width="8" height="8" rx="1.5" fill="#ffffff"/>
  <rect x="16" y="16" width="8" height="8" rx="1.5" fill="#ffffff"/>
  <rect x="32" y="16" width="8" height="8" rx="1.5" fill="#ffffff"/>
  <rect x="16" y="24" width="8" height="8" rx="1.5" fill="#ffffff"/>
  <rect x="24" y="24" width="8" height="8" rx="1.5" fill="#ffffff"/>
  <rect x="32" y="24" width="8" height="8" rx="1.5" fill="#ffffff"/>
  <rect x="16" y="32" width="8" height="8" rx="1.5" fill="#ffffff"/>
  <rect x="16" y="40" width="8" height="8" rx="1.5" fill="#ffffff"/>
  <rect x="16" y="48" width="8" height="8" rx="1.5" fill="#ffffff"/>
</svg>
